<svg xmlns="http://www.w3.org/2000/svg" width="20.417" height="12.182" viewBox="0 0 20.417 12.182">
  <path id="Tracé_27" data-name="Tracé 27" d="M61,66.208v.029h-.01a.025.025,0,0,0-.017.007L54.591,71.9q-.055.049-.055-.025V68.938a.056.056,0,0,0-.046-.06,23.627,23.627,0,0,0-7.024-.712,12.908,12.908,0,0,0-2.369.358A6.388,6.388,0,0,0,40.62,71.88q-.035.074-.032-.008a8.3,8.3,0,0,1,2.047-4.988c2.826-3.3,7.718-4.108,11.85-4.107a.045.045,0,0,0,.051-.051V59.79q0-.082.059-.024Z" transform="translate(-40.588 -59.742)"/>
</svg>
