<svg xmlns="http://www.w3.org/2000/svg" width="20.417" height="19.671" viewBox="0 0 20.417 19.671">
  <path id="Recycling_symbol" data-name="Recycling symbol" d="M6.7,24.3l1.267,1-1.2,2.3c-.6,1.067.433,2.1,1.1,2.468a5.706,5.706,0,0,0,2.6.4l1.7-2.768,1.267.7-2.2-4.1-4.5.033m.2,5.635,2.734,5.068a3.211,3.211,0,0,0,2.668.834h2.9v-4.8l-5.5-.033A3.419,3.419,0,0,1,6.9,29.971M24.14,20.634l-1.5.634L21.206,19.1c-.634-1.034-2.034-.634-2.668-.233a6.1,6.1,0,0,0-1.6,2.067l1.6,2.834-1.234.767,4.668.067Zm-5.035-2.568L13.336,18A3.206,3.206,0,0,0,11.3,19.934L9.9,22.468,14.1,24.8l2.7-4.768a3.357,3.357,0,0,1,2.3-1.934m.267,19.54.167-1.6,2.6-.2c1.234-.067,1.534-1.467,1.5-2.234a5.708,5.708,0,0,0-1.034-2.4l-3.24.031-.1-1.434-2.3,4.068,2.434,3.8m4.668-3.134,2.834-5a3.18,3.18,0,0,0-.7-2.7l-1.534-2.468L20.6,26.9l2.868,4.668a3.353,3.353,0,0,1,.567,2.968Z" transform="translate(-6.587 -18)"/>
</svg>
